<svg width="58" height="58" viewBox="0 0 58 58" fill="none" xmlns="http://www.w3.org/2000/svg">
<path d="M35.4486 27.937L29.7243 33.5157L5.55111 57.0703C4.91649 57.6901 4.10239 58 3.28828 58C2.39725 58 1.50623 57.6308 0.858787 56.8988C-0.416858 55.4613 -0.25019 53.2126 1.21776 51.9861L29.7243 28.2667L32.8653 25.6554L35.4486 27.937Z" fill="#4D66F3"/>
<path d="M58.0001 19.3052C58.0001 29.9416 49.6155 38.5669 39.2821 38.5669C32.7693 38.5669 27.0321 35.1445 23.6795 29.9482C21.7115 26.9017 20.5641 23.2419 20.5641 19.3052C20.5641 8.66869 28.9487 0.0500488 39.2821 0.0500488C43.9488 0.0500488 48.2116 1.80411 51.4873 4.70557C55.4745 8.24007 58.0001 13.4693 58.0001 19.3052Z" fill="#4D66F3"/>
<path d="M39.2821 34.307C47.3363 34.307 53.8655 27.5905 53.8655 19.3052C53.8655 11.0199 47.3363 4.30334 39.2821 4.30334C31.2279 4.30334 24.6987 11.0199 24.6987 19.3052C24.6987 27.5905 31.2279 34.307 39.2821 34.307Z" fill="#ECEFF1"/>
</svg>
