<svg width="38" height="32" viewBox="0 0 38 32" fill="none" xmlns="http://www.w3.org/2000/svg">
<g clip-path="url(#clip0_196_20)">
<path d="M30.6741 12.7312V12.4977C30.6741 5.96027 25.5375 0.82373 19.0001 0.82373C13.1631 0.82373 8.26007 5.02636 7.55963 10.8633C3.35701 12.2642 0.321777 15.9999 0.321777 20.6695C0.321777 26.5064 4.99136 31.176 10.8283 31.176C14.7975 31.176 24.6036 31.176 28.3393 31.176C33.4758 31.176 37.6784 26.9734 37.6784 21.8369C37.6784 17.4008 34.6432 13.8986 30.6741 12.7312Z" fill="#4D66F3"/>
<path d="M21.3348 19.5021V26.5064H16.6653V19.5021H9.66089L19.0001 10.1629L28.3392 19.5021H21.3348Z" fill="white"/>
</g>
<defs>
<clipPath id="clip0_196_20">
<rect width="37.3567" height="30.3523" fill="white" transform="translate(0.321777 0.82373)"/>
</clipPath>
</defs>
</svg>
