<svg width="62" height="62" viewBox="0 0 62 62" fill="none" xmlns="http://www.w3.org/2000/svg">
<path d="M1.66992 59.8331L2.47543 59.9527C3.28094 60.0713 4.89217 60.3096 6.50319 55.8008C8.11441 51.2919 9.72543 42.036 11.3367 40.6806C12.9477 39.3261 14.5589 45.8711 16.1699 41.9843C17.7801 38.0974 19.3924 23.7776 21.0026 13.8417C22.6148 3.90589 24.225 -1.64516 25.8373 4.70719C27.4475 11.0604 29.0597 29.3179 30.6699 38.0965C32.2801 46.875 33.8924 46.1745 35.5025 43.7724C37.1148 41.3695 38.725 37.2657 40.3373 32.0359C41.9475 26.8061 43.5597 20.452 45.1699 23.0459C46.7801 25.6398 48.3924 37.1836 50.0025 44.953C51.6148 52.7214 53.225 56.7163 54.8373 57.6184C56.4475 58.5205 58.0597 56.3299 58.8638 55.2341L59.6699 54.1393" stroke="#4D66F3" stroke-width="3" stroke-linecap="round"/>
<path d="M59.6699 27.1353L58.7026 21.841C57.7373 16.5467 55.8026 5.95718 53.8699 2.95262C51.9373 -0.0519318 50.0026 4.52844 48.0699 10.0319C46.1373 15.5353 44.2026 21.9619 42.2699 19.3805C40.3373 16.7983 38.4025 5.20809 36.4699 9.17169C34.5373 13.1353 32.6026 32.6535 30.6699 36.3214C28.7373 39.9892 26.8026 27.8076 24.8699 27.2276C22.9373 26.6476 21.0026 37.6701 19.0699 35.6033C17.1373 33.5365 15.2032 18.3806 13.2699 19.8241C11.3367 21.2667 9.40319 39.3079 7.46992 48.7709C5.53666 58.233 3.60319 59.1169 2.63666 59.5581L1.66992 60" stroke="#CFD8DC" stroke-width="3" stroke-linecap="round"/>
</svg>
