<svg width="47" height="52" viewBox="0 0 47 52" fill="none" xmlns="http://www.w3.org/2000/svg">
<path d="M23.5 10.5C21.1099 10.5034 18.8186 11.5752 17.1285 13.4804C15.4385 15.3856 14.4877 17.9685 14.4846 20.6628H19.068C19.068 17.9064 21.0571 15.6667 23.5 15.6667C25.943 15.6667 27.9321 17.9064 27.9321 20.6628C27.9321 22.2077 26.8298 23.3288 25.1455 24.8633C24.5952 25.3493 24.0667 25.8657 23.5619 26.4108C21.2748 28.9863 21.2084 31.7221 21.2084 32.0269V33.75H25.7917L25.7894 32.1147C25.7917 32.0734 25.865 31.1176 26.8 30.0662C27.1438 29.6787 27.5769 29.2912 28.0261 28.883C29.8113 27.2529 32.5132 24.791 32.5132 20.6628C32.5113 17.9686 31.5612 15.3852 29.8714 13.4798C28.1816 11.5744 25.8901 10.5027 23.5 10.5ZM21.2084 36.3333H25.7917V41.5H21.2084V36.3333Z" fill="#4D66F3"/>
<path d="M23.4999 0.166687C10.8637 0.166687 0.583252 11.7555 0.583252 26C0.583252 40.2445 10.8637 51.8334 23.4999 51.8334C36.1362 51.8334 46.4166 40.2445 46.4166 26C46.4166 11.7555 36.1362 0.166687 23.4999 0.166687ZM23.4999 46.6667C13.3914 46.6667 5.16658 37.3951 5.16658 26C5.16658 14.6049 13.3914 5.33335 23.4999 5.33335C33.6085 5.33335 41.8332 14.6049 41.8332 26C41.8332 37.3951 33.6085 46.6667 23.4999 46.6667Z" fill="#4D66F3"/>
</svg>
